<svg width="639" height="262" viewBox="0 0 639 262" fill="none" xmlns="http://www.w3.org/2000/svg">
<path d="M333.435 0.604942L333.571 0.5H333.742H337.745C338.021 0.5 338.245 0.723858 338.245 1H345.252C345.252 0.723858 345.476 0.5 345.752 0.5H353.759C354.035 0.5 354.259 0.723858 354.259 1H361.266C361.266 0.723858 361.49 0.5 361.766 0.5H369.772C370.049 0.5 370.272 0.723858 370.272 1H377.279C377.279 0.723858 377.503 0.5 377.779 0.5H385.786C386.062 0.5 386.286 0.723858 386.286 1H393.293C393.293 0.723858 393.517 0.5 393.793 0.5H401.8C402.076 0.5 402.3 0.723858 402.3 1H409.306C409.306 0.723858 409.53 0.5 409.806 0.5H417.813C418.089 0.5 418.313 0.723858 418.313 1H425.32C425.32 0.723858 425.544 0.5 425.82 0.5H433.827C434.103 0.5 434.327 0.723858 434.327 1H441.334C441.334 0.723858 441.557 0.5 441.834 0.5H449.84C450.117 0.5 450.34 0.723858 450.34 1H457.347C457.347 0.723858 457.571 0.5 457.847 0.5H465.854C466.13 0.5 466.354 0.723858 466.354 1H473.361C473.361 0.723858 473.585 0.5 473.861 0.5H481.868C482.144 0.5 482.368 0.723858 482.368 1H489.374C489.374 0.723858 489.598 0.5 489.874 0.5H497.881C498.157 0.5 498.381 0.723858 498.381 1H505.388C505.388 0.723858 505.612 0.5 505.888 0.5H513.895C514.171 0.5 514.395 0.723858 514.395 1H521.401C521.401 0.723858 521.625 0.5 521.901 0.5H529.908C530.184 0.5 530.408 0.723858 530.408 1H537.415C537.415 0.723858 537.639 0.5 537.915 0.5H545.922C546.198 0.5 546.422 0.723858 546.422 1H553.429C553.429 0.723858 553.653 0.5 553.929 0.5H561.935C562.212 0.5 562.435 0.723858 562.435 1H569.442C569.442 0.723858 569.666 0.5 569.942 0.5H577.949C578.225 0.5 578.449 0.723858 578.449 1H585.456C585.456 0.723858 585.68 0.5 585.956 0.5H593.963C594.239 0.5 594.463 0.723858 594.463 1H601.469C601.469 0.723858 601.693 0.5 601.969 0.5H609.976C610.252 0.5 610.476 0.723858 610.476 1H617.483C617.483 0.723858 617.707 0.5 617.983 0.5H625.99C626.266 0.5 626.49 0.723858 626.49 1H633.497C633.497 0.723858 633.72 0.5 633.997 0.5H638H638.5V1V5.0625C638.5 5.33864 638.276 5.5625 638 5.5625V12.6875C638.276 12.6875 638.5 12.9114 638.5 13.1875V21.3125C638.5 21.5886 638.276 21.8125 638 21.8125V28.9375C638.276 28.9375 638.5 29.1614 638.5 29.4375V37.5625C638.5 37.8386 638.276 38.0625 638 38.0625V45.1875C638.276 45.1875 638.5 45.4114 638.5 45.6875V53.8125C638.5 54.0886 638.276 54.3125 638 54.3125V61.4375C638.276 61.4375 638.5 61.6614 638.5 61.9375V70.0625C638.5 70.3386 638.276 70.5625 638 70.5625V77.6875C638.276 77.6875 638.5 77.9114 638.5 78.1875V86.3125C638.5 86.5886 638.276 86.8125 638 86.8125V93.9375C638.276 93.9375 638.5 94.1614 638.5 94.4375V102.562C638.5 102.839 638.276 103.062 638 103.062V110.188C638.276 110.188 638.5 110.411 638.5 110.688V118.812C638.5 119.089 638.276 119.312 638 119.312V126.438C638.276 126.438 638.5 126.661 638.5 126.938V135.062C638.5 135.339 638.276 135.562 638 135.562V142.688C638.276 142.688 638.5 142.911 638.5 143.188V151.312C638.5 151.589 638.276 151.812 638 151.812V158.938C638.276 158.938 638.5 159.161 638.5 159.438V167.562C638.5 167.839 638.276 168.062 638 168.062V175.188C638.276 175.188 638.5 175.411 638.5 175.688V183.812C638.5 184.089 638.276 184.312 638 184.312V191.438C638.276 191.438 638.5 191.661 638.5 191.938V200.062C638.5 200.339 638.276 200.562 638 200.562V207.688C638.276 207.688 638.5 207.911 638.5 208.188V216.312C638.5 216.589 638.276 216.812 638 216.812V223.938C638.276 223.938 638.5 224.161 638.5 224.438V232.562C638.5 232.839 638.276 233.062 638 233.062V240.188C638.276 240.188 638.5 240.411 638.5 240.688V248.812C638.5 249.089 638.276 249.312 638 249.312V256.438C638.276 256.438 638.5 256.661 638.5 256.938V261V261.5H638H633.984C633.708 261.5 633.484 261.276 633.484 261H626.452C626.452 261.276 626.228 261.5 625.952 261.5H617.92C617.644 261.5 617.42 261.276 617.42 261H610.388C610.388 261.276 610.164 261.5 609.888 261.5H601.856C601.58 261.5 601.356 261.276 601.356 261H594.324C594.324 261.276 594.1 261.5 593.824 261.5H585.792C585.516 261.5 585.292 261.276 585.292 261H578.26C578.26 261.276 578.036 261.5 577.76 261.5H569.728C569.452 261.5 569.228 261.276 569.228 261H562.196C562.196 261.276 561.972 261.5 561.696 261.5H553.664C553.388 261.5 553.164 261.276 553.164 261H546.132C546.132 261.276 545.908 261.5 545.632 261.5H537.6C537.324 261.5 537.1 261.276 537.1 261H530.068C530.068 261.276 529.844 261.5 529.568 261.5H521.536C521.259 261.5 521.036 261.276 521.036 261H514.004C514.004 261.276 513.78 261.5 513.504 261.5H505.472C505.195 261.5 504.972 261.276 504.972 261H497.939C497.939 261.276 497.716 261.5 497.439 261.5H489.407C489.131 261.5 488.907 261.276 488.907 261H481.875C481.875 261.276 481.652 261.5 481.375 261.5H473.343C473.067 261.5 472.843 261.276 472.843 261H465.811C465.811 261.276 465.588 261.5 465.311 261.5H457.279C457.003 261.5 456.779 261.276 456.779 261H449.747C449.747 261.276 449.523 261.5 449.247 261.5H441.215C440.939 261.5 440.715 261.276 440.715 261H433.683C433.683 261.276 433.459 261.5 433.183 261.5H425.151C424.875 261.5 424.651 261.276 424.651 261H417.619C417.619 261.276 417.395 261.5 417.119 261.5H409.087C408.811 261.5 408.587 261.276 408.587 261H401.555C401.555 261.276 401.331 261.5 401.055 261.5H393.023C392.747 261.5 392.523 261.276 392.523 261H385.491C385.491 261.276 385.267 261.5 384.991 261.5H376.959C376.683 261.5 376.459 261.276 376.459 261H369.427C369.427 261.276 369.203 261.5 368.927 261.5H360.895C360.619 261.5 360.395 261.276 360.395 261H353.363C353.363 261.276 353.139 261.5 352.863 261.5H344.831C344.555 261.5 344.331 261.276 344.331 261H337.299C337.299 261.276 337.075 261.5 336.799 261.5H328.767C328.491 261.5 328.267 261.276 328.267 261H321.235C321.235 261.276 321.011 261.5 320.735 261.5H312.703C312.427 261.5 312.203 261.276 312.203 261H305.171C305.171 261.276 304.947 261.5 304.671 261.5H296.639C296.362 261.5 296.139 261.276 296.139 261H289.107C289.107 261.276 288.883 261.5 288.607 261.5H280.575C280.298 261.5 280.075 261.276 280.075 261H273.043C273.043 261.276 272.819 261.5 272.543 261.5H264.51C264.234 261.5 264.01 261.276 264.01 261H256.978C256.978 261.276 256.755 261.5 256.478 261.5H248.446C248.17 261.5 247.946 261.276 247.946 261H240.914C240.914 261.276 240.69 261.5 240.414 261.5H232.382C232.106 261.5 231.882 261.276 231.882 261H224.85C224.85 261.276 224.626 261.5 224.35 261.5H216.318C216.042 261.5 215.818 261.276 215.818 261H208.786C208.786 261.276 208.562 261.5 208.286 261.5H204.27H204.119L203.993 261.416L199.786 258.618C199.556 258.465 199.493 258.155 199.646 257.925L192.063 252.883C191.91 253.113 191.6 253.175 191.37 253.022L187.288 250.308H183.555C183.279 250.308 183.055 250.084 183.055 249.808H176.287C176.287 250.084 176.063 250.308 175.787 250.308H168.018C167.742 250.308 167.518 250.084 167.518 249.808H160.75C160.75 250.084 160.526 250.308 160.25 250.308H152.482C152.206 250.308 151.982 250.084 151.982 249.808H145.213C145.213 250.084 144.99 250.308 144.713 250.308H136.945C136.669 250.308 136.445 250.084 136.445 249.808H129.677C129.677 250.084 129.453 250.308 129.177 250.308H121.409C121.132 250.308 120.909 250.084 120.909 249.808H114.14C114.14 250.084 113.916 250.308 113.64 250.308H105.872C105.596 250.308 105.372 250.084 105.372 249.808H98.6037C98.6037 250.084 98.3798 250.308 98.1037 250.308H90.3354C90.0593 250.308 89.8354 250.084 89.8354 249.808H83.0671C83.0671 250.084 82.8433 250.308 82.5671 250.308H74.7988C74.5227 250.308 74.2988 250.084 74.2988 249.808H67.5305C67.5305 250.084 67.3067 250.308 67.0305 250.308H59.2623C58.9861 250.308 58.7623 250.084 58.7623 249.808H51.994C51.994 250.084 51.7701 250.308 51.494 250.308H43.7256C43.4495 250.308 43.2256 250.084 43.2256 249.808H36.4574C36.4574 250.084 36.2335 250.308 35.9574 250.308H28.1891C27.9129 250.308 27.6891 250.084 27.6891 249.808H20.9208C20.9208 250.084 20.6969 250.308 20.4208 250.308H12.6525C12.3763 250.308 12.1525 250.084 12.1525 249.808H5.38422C5.38422 250.084 5.16034 250.308 4.88422 250.308H1.00006H0.500061V249.808V245.92C0.500061 245.644 0.723938 245.42 1.00006 245.42V238.645C0.723938 238.645 0.500061 238.421 0.500061 238.145V230.37C0.500061 230.094 0.723938 229.87 1.00006 229.87V223.095C0.723938 223.095 0.500061 222.871 0.500061 222.595V214.819C0.500061 214.543 0.723938 214.319 1.00006 214.319V207.544C0.723938 207.544 0.500061 207.32 0.500061 207.044V199.269C0.500061 198.993 0.723938 198.769 1.00006 198.769V191.994C0.723938 191.994 0.500061 191.77 0.500061 191.494V183.718C0.500061 183.442 0.723938 183.218 1.00006 183.218V176.443C0.723938 176.443 0.500061 176.219 0.500061 175.943V168.168C0.500061 167.892 0.723938 167.668 1.00006 167.668V160.893C0.723938 160.893 0.500061 160.669 0.500061 160.393V152.617C0.500061 152.341 0.723938 152.117 1.00006 152.117V145.342C0.723938 145.342 0.500061 145.118 0.500061 144.842V137.067C0.500061 136.791 0.723938 136.567 1.00006 136.567V129.792C0.723938 129.792 0.500061 129.568 0.500061 129.292V121.516C0.500061 121.24 0.723938 121.016 1.00006 121.016V114.241C0.723938 114.241 0.500061 114.017 0.500061 113.741V105.966C0.500061 105.69 0.723938 105.466 1.00006 105.466V98.6906C0.723938 98.6906 0.500061 98.4668 0.500061 98.1906V90.4154C0.500061 90.1392 0.723938 89.9154 1.00006 89.9154V83.1401C0.723938 83.1401 0.500061 82.9163 0.500061 82.6401V74.8648C0.500061 74.5887 0.723938 74.3648 1.00006 74.3648V67.5896C0.723938 67.5896 0.500061 67.3657 0.500061 67.0896V59.3144C0.500061 59.0382 0.723938 58.8144 1.00006 58.8144V52.0391C0.723938 52.0391 0.500061 51.8152 0.500061 51.5391V43.7638C0.500061 43.4877 0.723938 43.2638 1.00006 43.2638V36.4886C0.723938 36.4886 0.500061 36.2647 0.500061 35.9886V28.2133C0.500061 27.9372 0.723938 27.7133 1.00006 27.7133V20.9381C0.723938 20.9381 0.500061 20.7142 0.500061 20.4381V12.6628C0.500061 12.3867 0.723938 12.1628 1.00006 12.1628V5.38758C0.723938 5.38758 0.500061 5.16372 0.500061 4.88758V1V0.5H1.00006H5.02295C5.29907 0.5 5.52295 0.723858 5.52295 1H12.5687C12.5687 0.723858 12.7925 0.5 13.0687 0.5H21.1144C21.3905 0.5 21.6144 0.723858 21.6144 1H28.6601C28.6601 0.723858 28.884 0.5 29.1601 0.5H37.2059C37.482 0.5 37.7059 0.723858 37.7059 1H44.7516C44.7516 0.723858 44.9754 0.5 45.2516 0.5H53.2973C53.5734 0.5 53.7973 0.723858 53.7973 1H60.843C60.843 0.723858 61.0669 0.5 61.343 0.5H69.3887C69.6649 0.5 69.8887 0.723858 69.8887 1H76.9345C76.9345 0.723858 77.1583 0.5 77.4345 0.5H85.4802C85.7563 0.5 85.9802 0.723858 85.9802 1H93.0259C93.0259 0.723858 93.2498 0.5 93.5259 0.5H101.572C101.848 0.5 102.072 0.723858 102.072 1H109.117C109.117 0.723858 109.341 0.5 109.617 0.5H113.64H113.801L113.931 0.593483L118.139 3.60673C118.364 3.7675 118.415 4.07984 118.255 4.30435L125.857 9.74863C126.018 9.52411 126.33 9.47244 126.555 9.63322L130.632 12.553H134.383C134.659 12.553 134.883 12.7768 134.883 13.053H141.705C141.705 12.7768 141.929 12.553 142.205 12.553H150.027C150.303 12.553 150.527 12.7768 150.527 13.053H157.349C157.349 12.7768 157.573 12.553 157.849 12.553H165.672C165.948 12.553 166.172 12.7768 166.172 13.053H172.994C172.994 12.7768 173.218 12.553 173.494 12.553H181.316C181.592 12.553 181.816 12.7768 181.816 13.053H188.638C188.638 12.7768 188.862 12.553 189.138 12.553H196.961C197.237 12.553 197.461 12.7768 197.461 13.053H204.283C204.283 12.7768 204.507 12.553 204.783 12.553H212.605C212.881 12.553 213.105 12.7768 213.105 13.053H219.927C219.927 12.7768 220.151 12.553 220.427 12.553H228.25C228.526 12.553 228.75 12.7768 228.75 13.053H235.572C235.572 12.7768 235.796 12.553 236.072 12.553H243.894C244.17 12.553 244.394 12.7768 244.394 13.053H251.216C251.216 12.7768 251.44 12.553 251.716 12.553H259.538C259.815 12.553 260.038 12.7768 260.038 13.053H266.861C266.861 12.7768 267.085 12.553 267.361 12.553H275.183C275.459 12.553 275.683 12.7768 275.683 13.053H282.505C282.505 12.7768 282.729 12.553 283.005 12.553H290.827C291.104 12.553 291.327 12.7768 291.327 13.053H298.15C298.15 12.7768 298.374 12.553 298.65 12.553H306.472C306.748 12.553 306.972 12.7768 306.972 13.053H313.794C313.794 12.7768 314.018 12.553 314.294 12.553H318.034L321.783 9.64468C322.001 9.47541 322.315 9.51507 322.484 9.73326L329.463 4.31972C329.293 4.10154 329.333 3.78745 329.551 3.61819L333.435 0.604942Z" fill="#282727" fill-opacity="0.7" stroke="#DDDDDD" stroke-linecap="round" stroke-dasharray="8.02"/>
</svg>